P3
# CREATOR: GIMP PNM Filter Version 1.1
128 16
255
0
0
0
0
0
0
0
0
0
0
0
0
0
0
0
0
0
0
0
0
0
0
0
0
0
0
0
0
0
0
0
0
0
0
0
0
0
0
0
0
0
0
0
0
0
0
0
0
0
0
0
0
0
0
0
0
0
0
0
0
0
0
0
0
0
0
0
0
0
0
0
0
0
0
0
0
0
0
0
0
0
0
0
0
0
0
0
0
0
0
0
0
0
0
0
0
0
0
0
0
0
0
0
0
0
0
0
0
0
0
0
0
0
0
0
0
0
0
0
0
0
0
0
0
0
0
0
0
0
0
0
0
0
0
0
0
0
0
0
0
0
0
0
0
0
0
0
0
0
0
0
0
0
0
0
0
0
0
0
0
0
0
0
0
0
0
0
0
0
0
0
0
0
0
0
0
0
0
0
0
0
0
0
0
0
0
0
0
0
0
0
0
0
0
0
0
0
0
0
0
0
0
0
0
0
0
0
0
0
0
0
0
0
0
0
0
0
0
0
0
0
0
0
0
0
0
0
0
0
0
0
0
0
0
0
0
0
0
0
0
0
0
0
0
0
0
0
0
0
0
0
0
0
0
0
0
0
0
0
0
0
0
0
0
0
0
0
0
0
0
0
0
0
0
0
0
0
0
0
3
3
3
55
54
54
99
81
66
112
91
75
91
71
55
79
60
45
51
37
28
66
43
25
188
132
78
220
159
102
255
208
148
255
231
179
255
224
183
255
220
181
254
219
180
254
219
180
254
219
180
254
219
180
254
219
180
255
221
182
255
232
190
252
216
166
109
83
58
18
11
8
64
47
35
93
73
57
96
77
60
69
62
55
54
52
52
12
12
12
0
0
0
0
0
0
0
0
0
0
0
0
0
0
0
0
0
0
0
0
0
0
0
0
0
0
0
0
0
0
0
0
0
0
0
0
0
0
0
0
0
0
0
0
0
0
0
0
0
0
0
0
0
0
0
0
0
0
0
0
0
0
0
0
0
0
0
0
0
0
0
0
0
0
0
0
0
0
0
0
0
0
0
0
0
0
0
0
0
0
0
0
0
0
0
0
0
0
0
0
0
0
0
0
0
0
0
0
0
0
0
0
0
0
0
0
0
0
0
0
0
0
0
0
0
0
0
0
0
0
0
0
0
0
0
0
0
0
0
0
0
0
0
0
0
0
0
0
0
0
0
0
0
0
0
0
0
0
0
0
0
0
0
0
0
0
0
0
0
0
0
0
0
0
0
0
0
0
0
0
0
0
0
0
0
0
0
0
0
0
0
0
0
0
0
0
0
0
0
0
0
0
0
0
0
0
0
0
0
0
0
0
0
0
0
0
0
0
0
0
0
0
0
0
0
0
0
0
0
0
0
0
0
0
0
0
0
0
0
0
0
0
0
0
0
0
0
0
0
0
0
0
0
0
0
0
0
0
0
0
0
0
0
0
0
0
0
0
0
0
0
0
0
0
0
0
0
0
0
0
0
0
0
0
0
0
0
0
0
0
0
0
0
0
0
0
0
66
63
61
108
88
70
100
80
63
82
62
48
64
46
35
57
40
26
228
167
104
223
171
112
138
108
77
122
103
81
160
142
117
225
200
165
255
227
187
255
220
181
254
219
180
254
219
180
255
220
181
255
230
190
248
222
183
199
174
143
149
131
105
150
118
86
133
100
69
62
45
33
83
64
49
107
86
69
106
87
71
69
64
59
26
26
26
0
0
0
0
0
0
0
0
0
0
0
0
0
0
0
0
0
0
0
0
0
0
0
0
0
0
0
0
0
0
0
0
0
0
0
0
0
0
0
0
0
0
0
0
0
0
0
0
0
0
0
0
0
0
0
0
0
0
0
0
0
0
0
0
0
0
0
0
0
0
0
0
0
0
0
0
0
0
0
0
0
0
0
0
0
0
0
0
0
0
0
0
0
0
0
0
0
0
0
0
0
0
0
0
0
0
0
0
0
0
0
0
0
0
0
0
0
0
0
0
0
0
0
0
0
0
0
0
0
0
0
0
0
0
0
0
0
0
0
0
0
0
0
0
0
0
0
0
0
0
0
0
0
0
0
0
0
0
0
0
0
0
0
0
0
0
0
0
0
0
0
0
0
0
0
0
0
0
0
0
0
0
0
0
0
0
0
0
0
0
0
0
0
0
0
0
0
0
0
0
0
0
0
0
0
0
0
0
0
0
0
0
0
0
0
0
0
0
0
0
0
0
0
0
0
0
0
0
0
0
0
0
0
0
0
0
0
0
0
0
0
0
0
0
0
0
0
0
0
0
0
0
0
0
0
0
0
0
0
0
0
0
0
0
0
0
0
0
0
0
0
0
0
0
0
0
0
0
0
0
0
0
0
0
0
0
0
0
0
0
0
0
0
0
3
3
3
80
72
66
107
86
69
91
70
55
77
57
43
44
31
22
147
109
72
112
87
60
44
34
27
40
28
22
29
16
10
24
12
6
38
26
19
121
104
85
252
223
183
255
221
182
252
218
180
250
223
183
190
170
139
79
66
53
42
31
24
67
52
44
75
65
58
95
74
55
80
59
41
75
56
43
102
81
65
66
55
48
32
33
33
0
0
0
0
0
0
0
0
0
0
0
0
0
0
0
0
0
0
0
0
0
0
0
0
0
0
0
0
0
0
255
26
0
255
43
0
255
64
0
255
85
0
0
0
0
0
0
0
0
0
0
0
0
0
0
0
0
0
0
0
0
0
0
0
0
0
0
0
0
0
0
0
0
0
0
0
0
0
0
0
0
0
0
0
0
0
0
0
0
0
0
0
0
0
0
0
0
0
0
0
0
0
30
255
0
15
255
0
0
0
0
0
0
0
0
0
0
0
0
0
0
0
0
0
0
0
0
0
0
0
255
105
0
255
125
0
0
0
0
0
0
0
0
0
0
0
0
0
0
0
0
0
0
0
0
0
0
0
0
0
0
0
0
0
0
0
0
0
0
0
0
0
0
0
0
145
255
0
121
255
0
0
0
0
0
0
0
0
0
0
0
0
0
0
0
0
0
0
0
0
0
0
0
0
0
0
0
0
0
0
0
0
0
0
0
0
0
0
0
0
0
0
0
0
0
0
0
0
0
0
0
0
0
0
0
0
0
0
0
0
0
0
0
0
0
0
0
0
0
0
0
0
255
0
210
255
0
189
0
0
0
0
0
0
0
0
0
0
0
0
0
0
0
0
0
0
0
0
0
0
0
0
0
0
0
0
0
0
0
0
0
0
0
0
0
0
0
24
24
24
80
68
58
104
83
66
84
63
48
56
41
31
92
68
47
170
123
81
138
92
54
200
144
92
213
167
116
172
132
92
110
82
57
41
26
16
110
93
74
253
226
185
255
226
186
224
195
161
79
70
57
28
18
13
59
41
27
125
94
65
182
144
102
210
168
121
159
122
83
111
81
52
62
47
36
103
81
65
85
69
56
45
45
45
0
0
0
0
0
0
0
0
0
0
0
0
0
0
0
0
0
0
0
0
0
0
0
0
0
0
0
255
11
0
255
26
0
0
0
0
0
0
0
0
0
0
255
108
0
0
0
0
0
0
0
0
0
0
0
0
0
0
0
0
0
0
0
0
0
0
0
0
0
0
0
0
0
0
0
0
0
0
0
0
0
0
0
0
0
0
0
0
0
0
0
0
0
0
0
0
0
0
0
0
0
0
30
255
0
15
255
0
0
0
0
0
0
0
0
0
0
0
0
0
0
0
0
0
0
0
0
0
0
0
255
105
0
255
125
0
0
0
0
0
0
0
0
0
0
0
0
0
0
0
0
0
0
0
0
0
0
0
0
0
0
0
0
0
0
0
0
0
0
0
0
0
0
0
0
145
255
0
121
255
0
0
0
0
0
0
0
0
0
0
0
0
0
0
0
0
0
0
0
0
0
0
0
0
0
0
0
0
0
0
0
0
0
0
0
0
0
0
0
0
0
0
0
0
0
0
0
0
0
0
0
0
0
0
0
0
0
0
0
0
0
0
0
0
0
0
0
0
0
0
0
0
255
0
210
255
0
189
0
0
0
0
0
0
0
0
0
0
0
0
0
0
0
0
0
0
0
0
0
0
0
0
0
0
0
0
0
0
0
0
0
0
0
0
1
1
1
61
61
60
93
75
60
96
76
60
81
60
45
42
30
22
175
134
91
255
192
121
255
179
103
237
171
107
208
162
109
161
119
80
148
111
74
196
148
100
250
206
158
255
222
182
254
220
181
250
218
179
181
153
120
119
89
62
215
167
115
255
213
147
255
203
139
255
195
132
255
196
124
191
135
81
28
20
16
86
68
54
91
73
58
53
52
52
0
0
0
0
0
0
0
0
0
0
0
0
0
0
0
0
0
0
0
0
0
0
0
0
0
0
0
255
11
0
255
26
0
0
0
0
0
0
0
0
0
0
0
0
0
0
0
0
0
0
0
0
0
0
255
197
0
255
216
0
255
233
0
255
247
0
0
0
0
0
0
0
0
0
0
210
255
0
192
255
0
172
255
0
150
255
0
129
255
0
0
0
0
0
0
0
0
0
0
47
255
0
30
255
0
15
255
0
4
255
0
0
0
0
0
0
0
0
0
0
0
0
0
0
0
0
0
0
0
0
255
105
0
255
125
0
0
0
0
0
0
0
0
0
0
0
0
0
0
0
0
0
0
0
255
247
0
254
255
0
242
255
0
227
255
0
0
0
0
0
0
0
0
0
0
145
255
0
121
255
0
98
255
0
76
255
0
55
255
0
0
0
0
0
0
0
0
0
0
0
0
14
0
255
28
0
255
43
0
255
61
0
255
0
0
0
0
0
0
0
0
0
140
0
255
161
0
255
0
0
0
199
0
255
216
0
255
0
0
0
0
0
0
254
0
255
255
0
245
255
0
229
255
0
210
255
0
189
0
0
0
0
0
0
0
0
0
255
0
92
255
0
69
255
0
47
255
0
28
0
0
0
0
0
0
0
0
0
0
0
0
1
1
1
59
58
56
90
72
58
116
94
76
81
63
49
61
44
32
55
40
28
233
174
117
255
195
130
179
131
87
107
89
69
124
109
88
135
113
89
115
92
68
176
138
98
255
216
167
255
219
180
254
219
180
255
228
188
206
176
142
102
79
57
120
93
67
170
139
104
229
188
141
255
207
152
255
192
129
203
147
93
47
35
26
76
59
48
78
63
50
46
46
46
0
0
0
0
0
0
0
0
0
0
0
0
0
0
0
0
0
0
0
0
0
0
0
0
0
0
0
255
11
0
255
26
0
0
0
0
0
0
0
0
0
0
0
0
0
0
0
0
0
0
0
255
176
0
0
0
0
0
0
0
0
0
0
255
247
0
253
255
0
0
0
0
0
0
0
210
255
0
192
255
0
0
0
0
0
0
0
129
255
0
107
255
0
0
0
0
0
0
0
0
0
0
30
255
0
15
255
0
0
0
0
0
0
0
0
0
0
0
0
0
0
0
0
0
0
0
0
0
0
0
255
105
0
255
125
0
0
0
0
0
0
0
0
0
0
0
0
0
0
0
0
255
235
0
0
0
0
0
0
0
0
0
0
227
255
0
209
255
0
0
0
0
0
0
0
145
255
0
121
255
0
0
0
0
0
0
0
55
255
0
36
255
0
0
0
0
0
0
3
0
255
14
0
255
0
0
0
0
0
0
61
0
255
80
0
255
0
0
0
0
0
0
140
0
255
161
0
255
181
0
255
199
0
255
216
0
255
0
0
0
244
0
255
254
0
255
0
0
0
0
0
0
255
0
210
255
0
189
0
0
0
0
0
0
255
0
117
255
0
92
0
0
0
0
0
0
255
0
28
255
0
12
0
0
0
0
0
0
0
0
0
0
0
0
54
53
52
67
57
48
84
67
54
58
44
35
43
31
23
62
44
31
231
172
116
255
204
148
226
196
159
246
217
180
255
233
192
208
182
149
212
182
148
255
219
177
254
218
178
254
219
180
254
219
181
254
220
178
229
187
141
153
117
80
107
81
56
102
78
54
75
61
44
172
136
100
255
206
141
191
145
99
31
24
18
72
55
43
63
59
56
7
8
8
0
0
0
0
0
0
0
0
0
0
0
0
0
0
0
0
0
0
0
0
0
0
0
0
0
0
0
255
11
0
255
26
0
0
0
0
255
64
0
255
85
0
255
108
0
0
0
0
0
0
0
0
0
0
0
0
0
0
0
0
0
0
0
255
247
0
253
255
0
0
0
0
0
0
0
210
255
0
192
255
0
0
0
0
0
0
0
129
255
0
107
255
0
0
0
0
0
0
0
0
0
0
30
255
0
15
255
0
0
0
0
0
0
0
0
0
0
0
0
0
0
0
0
0
0
0
0
0
0
0
255
105
0
255
125
0
0
0
0
0
0
0
0
0
0
0
0
0
0
0
0
0
0
0
0
0
0
0
0
0
0
0
0
227
255
0
209
255
0
0
0
0
0
0
0
145
255
0
121
255
0
0
0
0
0
0
0
55
255
0
36
255
0
0
0
0
0
0
3
0
255
14
0
255
0
0
0
0
0
0
61
0
255
80
0
255
0
0
0
0
0
0
140
0
255
161
0
255
0
0
0
0
0
0
0
0
0
0
0
0
244
0
255
254
0
255
0
0
0
0
0
0
255
0
210
255
0
189
0
0
0
0
0
0
255
0
117
255
0
92
0
0
0
0
0
0
255
0
28
255
0
12
0
0
0
0
0
0
0
0
0
0
0
0
0
0
0
30
31
32
86
68
50
177
136
92
59
44
32
38
27
19
223
173
123
255
219
176
255
224
185
255
220
181
254
218
179
251
219
180
255
224
185
255
227
186
254
220
181
254
220
181
254
217
177
253
201
149
255
192
131
254
191
128
223
168
114
243
189
132
231
182
129
207
162
116
255
194
131
229
172
117
48
36
27
67
51
39
54
52
51
0
0
0
0
0
0
0
0
0
0
0
0
0
0
0
0
0
0
0
0
0
0
0
0
0
0
0
0
0
0
255
11
0
255
26
0
0
0
0
0
0
0
255
85
0
255
108
0
0
0
0
0
0
0
0
0
0
255
197
0
255
216
0
255
233
0
255
247
0
253
255
0
0
0
0
0
0
0
210
255
0
192
255
0
0
0
0
0
0
0
129
255
0
107
255
0
0
0
0
0
0
0
0
0
0
30
255
0
15
255
0
0
0
0
0
0
0
0
0
0
0
0
0
0
0
0
0
0
0
0
0
0
0
255
105
0
255
125
0
0
0
0
0
0
0
0
0
0
0
0
0
0
0
0
0
0
0
255
247
0
254
255
0
242
255
0
227
255
0
209
255
0
0
0
0
0
0
0
145
255
0
121
255
0
0
0
0
0
0
0
55
255
0
36
255
0
0
0
0
0
0
3
0
255
14
0
255
0
0
0
0
0
0
61
0
255
80
0
255
0
0
0
0
0
0
140
0
255
161
0
255
0
0
0
0
0
0
0
0
0
0
0
0
244
0
255
254
0
255
0
0
0
0
0
0
255
0
210
255
0
189
0
0
0
0
0
0
255
0
117
255
0
92
255
0
69
255
0
47
255
0
28
255
0
12
0
0
0
0
0
0
0
0
0
0
0
0
0
0
0
19
20
20
155
123
88
202
155
103
63
47
33
31
22
15
223
185
143
255
227
186
254
219
180
255
222
183
255
224
184
255
223
184
245
213
175
182
156
126
249
213
169
255
216
174
254
207
158
255
194
133
255
194
130
254
191
132
255
208
156
255
215
170
255
218
174
255
221
177
255
205
153
235
177
121
69
52
39
41
30
22
56
55
55
0
0
0
0
0
0
0
0
0
0
0
0
0
0
0
0
0
0
0
0
0
0
0
0
0
0
0
0
0
0
255
11
0
255
26
0
0
0
0
0
0
0
255
85
0
255
108
0
0
0
0
0
0
0
255
176
0
255
197
0
0
0
0
0
0
0
255
247
0
253
255
0
0
0
0
0
0
0
210
255
0
192
255
0
0
0
0
0
0
0
129
255
0
107
255
0
0
0
0
0
0
0
0
0
0
30
255
0
15
255
0
0
0
0
0
0
0
0
0
0
0
0
0
0
0
0
0
0
0
0
0
0
0
255
105
0
255
125
0
0
0
0
0
0
0
0
0
0
0
0
0
0
0
0
255
235
0
255
247
0
0
0
0
0
0
0
227
255
0
209
255
0
0
0
0
0
0
0
145
255
0
121
255
0
0
0
0
0
0
0
55
255
0
36
255
0
0
0
0
0
0
3
0
255
14
0
255
0
0
0
0
0
0
61
0
255
80
0
255
0
0
0
0
0
0
140
0
255
161
0
255
0
0
0
0
0
0
0
0
0
0
0
0
244
0
255
254
0
255
0
0
0
0
0
0
255
0
210
255
0
189
0
0
0
0
0
0
255
0
117
255
0
92
0
0
0
0
0
0
0
0
0
0
0
0
0
0
0
0
0
0
0
0
0
0
0
0
0
0
0
19
20
20
142
111
79
130
96
64
40
29
20
38
28
21
236
200
161
255
231
190
255
225
184
237
205
169
228
198
163
253
220
182
247
220
180
116
96
74
231
187
136
255
200
145
255
198
139
231
176
121
195
151
106
255
219
170
255
229
188
255
225
186
253
221
182
249
219
181
255
228
182
161
129
95
27
19
14
129
93
60
53
52
51
0
0
0
0
0
0
0
0
0
0
0
0
0
0
0
0
0
0
0
0
0
0
0
0
0
0
0
0
0
0
255
11
0
255
26
0
0
0
0
0
0
0
255
85
0
255
108
0
0
0
0
0
0
0
255
176
0
255
197
0
0
0
0
0
0
0
255
247
0
253
255
0
0
0
0
0
0
0
210
255
0
192
255
0
0
0
0
0
0
0
129
255
0
107
255
0
0
0
0
0
0
0
0
0
0
30
255
0
15
255
0
0
0
0
0
0
0
0
0
0
0
0
0
0
0
0
0
0
0
0
0
0
0
255
105
0
255
125
0
0
0
0
0
0
0
0
0
0
0
0
0
0
0
0
255
235
0
255
247
0
0
0
0
0
0
0
227
255
0
209
255
0
0
0
0
0
0
0
145
255
0
121
255
0
0
0
0
0
0
0
55
255
0
36
255
0
0
0
0
0
0
3
0
255
14
0
255
0
0
0
0
0
0
61
0
255
80
0
255
0
0
0
0
0
0
140
0
255
161
0
255
0
0
0
0
0
0
0
0
0
0
0
0
244
0
255
254
0
255
0
0
0
0
0
0
255
0
210
255
0
189
0
0
0
0
0
0
255
0
117
255
0
92
0
0
0
0
0
0
0
0
0
255
0
12
0
0
0
0
0
0
0
0
0
0
0
0
0
0
0
6
6
6
108
89
71
152
111
72
96
72
48
68
53
37
247
211
168
163
143
120
186
164
134
183
155
125
132
110
89
132
111
91
162
142
117
159
135
108
223
180
137
255
204
151
241
194
144
155
126
96
127
110
90
191
169
139
183
157
130
175
148
121
190
159
128
167
141
112
244
209
164
124
98
71
83
61
40
180
133
88
38
38
39
0
0
0
0
0
0
0
0
0
0
0
0
0
0
0
0
0
0
0
0
0
0
0
0
0
0
0
0
0
0
0
0
0
255
26
0
255
43
0
255
64
0
255
85
0
0
0
0
0
0
0
0
0
0
0
0
0
255
197
0
255
216
0
255
233
0
255
247
0
253
255
0
0
0
0
0
0
0
210
255
0
192
255
0
0
0
0
0
0
0
129
255
0
107
255
0
0
0
0
0
0
0
0
0
0
0
0
0
15
255
0
4
255
0
0
0
0
0
0
0
0
0
0
0
0
0
0
0
0
0
0
0
0
255
105
0
255
125
0
255
146
0
255
166
0
255
185
0
0
0
0
0
0
0
0
0
0
255
247
0
254
255
0
242
255
0
227
255
0
209
255
0
0
0
0
0
0
0
145
255
0
121
255
0
98
255
0
76
255
0
55
255
0
0
0
0
0
0
0
0
0
0
0
0
14
0
255
28
0
255
43
0
255
61
0
255
0
0
0
0
0
0
0
0
0
140
0
255
161
0
255
0
0
0
0
0
0
0
0
0
0
0
0
0
0
0
254
0
255
255
0
245
255
0
229
255
0
210
255
0
189
0
0
0
0
0
0
0
0
0
255
0
92
255
0
69
255
0
47
255
0
28
0
0
0
0
0
0
0
0
0
0
0
0
0
0
0
0
0
0
0
0
0
65
63
60
192
142
91
229
177
119
154
119
82
215
186
144
133
128
124
179
178
179
146
134
119
173
149
121
167
139
111
139
117
93
168
142
114
253
216
175
255
219
177
223
191
158
178
149
123
106
87
68
84
66
51
125
101
78
138
116
93
133
120
106
123
123
123
178
146
113
205
154
106
244
184
121
132
106
81
10
10
11
0
0
0
0
0
0
0
0
0
0
0
0
0
0
0
0
0
0
0
0
0
0
0
0
0
0
0
0
0
0
0
0
0
0
0
0
0
0
0
0
0
0
0
0
0
0
0
0
0
0
0
0
0
0
0
0
0
0
0
0
0
0
0
0
0
0
0
0
0
0
0
0
0
0
0
0
0
0
0
0
0
0
0
0
0
0
0
0
0
0
0
0
0
0
0
0
0
0
0
0
0
0
0
0
0
0
0
0
0
0
0
0
0
0
0
0
0
0
0
0
0
0
0
0
0
0
0
0
0
0
0
0
0
0
0
0
0
0
0
0
0
0
0
0
0
0
0
0
0
0
0
0
0
0
0
0
0
0
0
0
0
0
0
0
0
0
0
0
0
0
0
0
0
0
0
0
0
0
0
0
0
0
0
0
0
0
0
0
0
0
0
0
0
0
0
0
0
0
0
0
0
0
0
0
0
0
0
0
0
0
0
0
0
0
0
0
0
0
0
0
0
0
0
0
0
0
0
0
0
0
0
0
0
0
0
0
0
0
0
0
0
0
0
0
0
0
0
0
0
0
0
0
0
0
0
0
0
0
0
0
0
0
0
0
0
0
0
0
0
0
0
0
0
0
0
0
0
0
0
0
0
0
0
0
0
0
0
0
0
0
0
0
0
0
0
0
0
0
0
0
0
0
0
27
28
29
132
103
72
251
191
126
245
188
132
187
160
123
156
156
156
255
255
255
234
236
238
189
190
191
157
153
148
162
152
140
186
168
148
253
223
187
239
208
172
176
154
129
157
139
118
147
132
116
149
139
130
156
153
149
193
194
193
231
232
235
214
219
224
139
117
92
253
196
133
198
142
89
68
65
62
0
0
0
0
0
0
0
0
0
0
0
0
0
0
0
0
0
0
0
0
0
0
0
0
0
0
0
0
0
0
0
0
0
0
0
0
0
0
0
0
0
0
0
0
0
0
0
0
0
0
0
0
0
0
0
0
0
0
0
0
0
0
0
0
0
0
0
0
0
0
0
0
0
0
0
0
0
0
0
0
0
0
0
0
0
0
0
0
0
0
0
0
0
0
0
0
0
0
0
0
0
0
0
0
0
0
0
0
0
0
0
0
0
0
0
0
0
0
0
0
0
0
0
0
0
0
0
0
0
0
0
0
0
0
0
0
0
0
0
0
0
0
0
0
0
0
0
0
0
0
0
0
0
0
0
0
0
0
0
0
0
0
0
0
0
0
0
0
0
0
0
0
0
0
0
0
0
0
0
0
0
0
0
0
0
0
0
0
0
0
0
0
0
0
0
0
0
0
0
0
0
0
0
0
0
0
0
0
0
0
0
0
0
0
0
0
0
0
0
0
0
0
0
0
0
0
0
0
0
0
0
0
0
0
0
0
0
0
0
0
0
0
0
0
0
0
0
0
0
0
0
0
0
0
0
0
0
0
0
0
0
0
0
0
0
0
0
0
0
0
0
0
0
0
0
0
0
0
0
0
0
0
0
0
0
0
0
0
0
0
0
0
0
0
0
0
0
0
0
0
0
0
0
0
0
0
0
0
0
59
58
57
121
85
53
255
203
143
176
147
115
154
156
158
255
255
255
255
255
255
255
255
255
255
255
255
254
255
255
243
244
246
255
252
248
247
243
238
213
214
216
213
215
217
233
235
237
255
255
255
255
255
255
255
255
255
255
255
255
204
207
211
134
114
89
196
155
104
62
55
51
13
13
14
0
0
0
0
0
0
0
0
0
0
0
0
0
0
0
0
0
0
0
0
0
0
0
0
0
0
0
0
0
0
0
0
0
0
0
0
0
0
0
0
0
0
0
0
0
0
0
0
0
0
0
0
0
0
0
0
0
0
0
0
0
0
0
0
0
0
0
0
0
0
0
0
0
0
0
0
0
0
0
0
0
0
0
0
0
0
0
0
0
0
0
0
0
0
0
0
0
0
0
0
0
0
0
0
0
0
0
0
0
0
0
0
0
0
0
0
0
0
0
0
0
0
0
0
0
0
0
0
0
0
0
0
0
0
0
0
0
0
0
0
0
0
0
0
0
0
0
0
0
0
0
0
0
0
0
0
0
0
0
0
0
0
0
0
0
0
0
0
0
0
0
0
0
0
0
0
0
0
0
0
0
0
0
0
0
0
0
0
0
0
0
0
0
0
0
0
0
0
0
0
0
0
0
0
0
0
0
0
0
0
0
0
0
0
0
0
0
0
0
0
0
0
0
0
0
0
0
0
0
0
0
0
0
0
0
0
0
0
0
0
0
0
0
0
0
0
0
0
0
0
0
0
0
0
0
0
0
0
0
0
0
0
0
0
0
0
0
0
0
0
0
0
0
0
0
0
0
0
0
0
0
0
0
0
0
0
0
0
0
0
0
0
0
0
0
0
0
0
0
0
0
0
0
0
0
0
0
0
0
5
5
5
85
74
64
255
197
135
179
149
118
122
124
127
162
163
163
214
214
214
246
246
246
255
255
255
255
255
255
255
255
255
255
255
255
255
255
255
255
255
255
255
255
255
255
255
255
255
255
255
255
255
255
253
253
253
208
208
208
81
84
88
132
104
75
168
135
99
15
15
16
0
0
0
0
0
0
0
0
0
0
0
0
0
0
0
0
0
0
0
0
0
0
0
0
0
0
0
0
0
0
0
0
0
0
0
0
0
0
0
0
0
0
0
0
0
0
0
0
0
0
0
0
0
0
0
0
0
0
0
0
0
0
0
0
0
0
0
0
0
0
0
0
0
0
0
0
0
0
0
0
0
0
0
0
0
0
0
0
0
0
0
0
0
0
0
0
0
0
0
0
0
0
0
0
0
0
0
0
0
0
0
0
0
0
0
0
0
0
0
0
0
0
0
0
0
0
0
0
0
0
0
0
0
0
0
0
0
0
0
0
0
0
0
0
0
0
0
0
0
0
0
0
0
0
0
0
0
0
0
0
0
0
0
0
0
0
0
0
0
0
0
0
0
0
0
0
0
0
0
0
0
0
0
0
0
0
0
0
0
0
0
0
0
0
0
0
0
0
0
0
0
0
0
0
0
0
0
0
0
0
0
0
0
0
0
0
0
0
0
0
0
0
0
0
0
0
0
0
0
0
0
0
0
0
0
0
0
0
0
0
0
0
0
0
0
0
0
0
0
0
0
0
0
0
0
0
0
0
0
0
0
0
0
0
0
0
0
0
0
0
0
0
0
0
0
0
0
0
0
0
0
0
0
0
0
0
0
0
0
0
0
0
0
0
0
0
0
0
0
0
0
0
0
0
0
0
0
0
0
0
0
0
0
0
0
77
69
62
253
191
131
179
150
116
158
160
162
206
205
205
152
152
152
136
136
136
153
153
153
179
179
179
194
194
194
216
216
216
252
252
252
246
246
246
210
210
210
200
200
200
184
184
184
158
158
158
126
126
126
122
122
123
69
71
75
173
136
94
117
99
80
2
2
2
0
0
0
0
0
0
0
0
0
0
0
0
0
0
0
0
0
0
0
0
0
0
0
0
0
0
0
