<?xml version="1.0" encoding="utf-8"?>
<!-- Generator: Adobe Illustrator 16.0.0, SVG Export Plug-In . SVG Version: 6.00 Build 0)  -->
<!DOCTYPE svg PUBLIC "-//W3C//DTD SVG 1.1//EN" "http://www.w3.org/Graphics/SVG/1.1/DTD/svg11.dtd">
<svg version="1.1" id="Layer_1" xmlns="http://www.w3.org/2000/svg" xmlns:xlink="http://www.w3.org/1999/xlink" x="0px" y="0px"
	 width="682px" height="459px" viewBox="0 0 682 459" enable-background="new 0 0 682 459" xml:space="preserve">
<g>
	<text transform="matrix(1 0 0 1 249.3091 354.3271)" fill="#A97C50" font-family="'PrestigeEliteStd-Bd'" font-size="51.7867">Board</text>
	<g>
		<g>
			<path fill-rule="evenodd" clip-rule="evenodd" fill="#A97C50" d="M269.648,224.379c-2.423-0.556-4.313,0.188-6.252,0.521
				c-1.814,0.312-3.368-0.118-3.882-2.146c-0.431-1.697-0.287-3.364,1.147-4.587c1.48-1.262,3.052-1.066,4.571,0.004
				c0.271,0.191,0.477,0.473,0.75,0.659c1.602,1.096,2.995,4.638,4.993,2.257c1.531-1.825-1.778-3.445-3.212-4.822
				c-4.293-4.121-9.442-6.675-15.303-7.939c-6.063-1.307-11.831-3.415-16.658-7.528c-5.594-4.766-7.907-12.801-4.989-17.339
				c3.146-4.892,12.086-6.225,18.692-2.716c5.211,2.769,8.678,7.22,11.278,12.353c2.405,4.749,4.51,9.647,6.865,14.422
				c1.788,3.624,4.058,6.887,7.721,8.935c6.371,3.56,11.749,0.646,12.175-6.642c0.384-6.573-1.78-12.834-2.434-19.284
				c-0.253-2.501-0.505-4.968-0.052-7.451c0.95-5.198,4.762-8.417,8.802-7.46c3.747,0.887,5.347,4.606,4.177,9.832
				c-0.4,1.786-0.969,3.535-1.358,5.323c-0.506,2.331-0.256,4.633,0.461,6.902c0.485,1.534,1.155,2.976,3.078,2.392
				c1.669-0.506,2.201-1.877,1.78-3.595c-0.198-0.807-0.375-1.628-0.454-2.453c-0.207-2.161-0.564-4.363,1.99-5.601
				c2.286-1.107,4.238-0.352,6.048,0.981c1.87,1.377,2.99,3.176,2.185,5.612c-0.573,1.735-1.282,3.425-1.899,5.147
				c-0.843,2.353-1.812,4.724-1.48,7.272c0.39,2.999,0.862,6.383,4.505,6.957c3.907,0.616,4.9-2.691,5.809-5.594
				c1.253-4.003,1.629-8.153,1.745-12.322c0.131-4.707,1.056-9.281,2.533-13.707c2.678-8.028,8.238-11.226,15.227-9.012
				c7.171,2.272,11.39,9.758,9.64,16.99c-0.84,3.472-2.588,6.473-4.566,9.374c-2.25,3.302-4.569,6.561-6.742,9.913
				c-0.748,1.154-2.421,2.727-0.73,3.886c1.989,1.363,2.758-1.022,3.684-2.205c1.124-1.436,1.915-3.13,3.025-4.578
				c2.594-3.377,5.625-3.876,9.006-1.089c0.514,0.424,0.969,0.924,1.506,1.315c6.197,4.513,8.002,4.171,12.244-2.294
				c0.365-0.557,0.697-1.136,1.086-1.676c3.301-4.598,6.4-5.616,9.43-3.111c3.039,2.513,2.9,7.703-0.061,11.274
				c-2.357,2.845-5.916,2.769-8.982,4.025c5.746,7.332,13.984,8.945,22.416,11.087c-44.025,4.812-88.051,9.624-132.517,14.483
				c4.11-1.936,7.894-3.547,11.505-5.481c2.109-1.13,3.58-2.817,0.749-4.937C265.859,228.449,268.648,226.467,269.648,224.379z"/>
			<path fill-rule="evenodd" clip-rule="evenodd" fill="#A97C50" d="M344.334,309.495c23.588,1.474,47.105,2.943,70.623,4.413
				c0,0.084,0,0.168,0,0.253c-59.777,0-119.556,0-179.334,0c-0.002-0.086-0.004-0.172-0.006-0.257
				c21.668-1.244,43.337-2.488,65.156-3.741c-0.73-2.079-2.343-1.659-3.505-2.045c-34.201-11.335-55.045-34.796-63.319-69.68
				c-0.582-2.453-1.436-4.953,2.494-5.598c3.429-0.562,5.56-0.678,6.621,3.862c7.478,32,26.671,53.745,58.506,62.653
				c41.922,11.732,85.229-14.9,95.815-57.989c2.699-10.981,3.088-22.055,1.533-33.224c-2.576-18.505,10.264-34.779,28.662-36.321
				c17.195-1.44,32.641,13.497,32.867,31.6c0.16,12.836-5.125,22.718-16.295,28.813c-10.893,5.942-21.801,4.779-32.084-2.102
				c-1.709-1.143-3.15-2.97-3.73,1.042c-5.49,38.016-25.648,64.176-62.439,76.775c-0.467,0.159-0.914,0.386-1.344,0.629
				C344.457,308.636,344.473,308.89,344.334,309.495z M451.715,204.157c0.008-12.633-9.846-22.921-22.076-23.049
				c-12.115-0.127-22.217,9.974-22.242,22.242c-0.025,12.752,10.119,23.332,22.42,23.381
				C441.822,226.78,451.705,216.591,451.715,204.157z"/>
		</g>
	</g>
	<g>
		<g>
			<path fill="#F7941E" d="M255.463,120.3c-0.486-1.592-0.398-3.173,0.284-4.737c0.682-1.563,1.71-3.02,3.089-4.354
				c1.379-1.333,3.006-2.496,4.877-3.481c1.869-0.981,3.726-1.697,5.556-2.147c1.218-0.3,2.42-0.476,3.604-0.529
				c1.181-0.052,1.838,0.211,1.966,0.774c0.081,0.354-0.233,0.999-0.924,1.938c-0.692,0.941-2.124,1.89-3.79,2.974
				c-0.303,0.197-0.805,0.609-1.481,1.154c-0.68,0.545-1.342,1.146-1.986,1.801c-0.645,0.655-1.191,1.342-1.629,2.059
				c-0.44,0.72-0.59,1.324-0.457,1.812c0.246,0.909,1.646,1.42,4.177,1.589c2.529,0.168,5.448-0.146,8.785-0.907
				c2.42-0.552,4.873-1.341,7.378-2.362c2.504-1.021,4.757-2.16,6.766-3.434c2.007-1.273,3.62-2.692,4.825-4.276
				c1.206-1.583,1.694-3.229,1.435-4.948c-0.239-1.574-0.964-2.82-2.195-3.728c-1.23-0.906-2.757-1.58-4.57-2.006
				c-1.814-0.427-3.772-0.669-5.865-0.718c-2.091-0.049-4.1,0.035-6.012,0.247c-1.913,0.212-3.591,0.467-5.024,0.75
				c-1.435,0.283-2.376,0.485-2.821,0.588c-3.386,0.789-6.944,1.953-10.64,3.514c-3.697,1.56-7.239,3.455-10.594,5.668
				c-3.358,2.215-6.425,4.696-9.188,7.421c-2.762,2.726-4.966,5.604-6.614,8.596c-1.65,2.994-2.652,6.043-3.036,9.126
				c-0.384,3.085,0.077,6.129,1.321,9.141c1.189,2.878,2.89,5.19,5.059,6.966c2.171,1.777,4.6,3.147,7.276,4.136
				c2.679,0.99,5.514,1.634,8.523,1.953c3.007,0.32,6.005,0.437,9.005,0.354c3-0.082,5.903-0.312,8.726-0.7
				c2.82-0.388,5.405-0.87,7.763-1.466c5.45-1.378,10.79-3.163,16.123-5.376c5.33-2.21,10.468-4.822,15.492-7.851
				c3.056-1.841,5.241-2.918,6.464-3.296c1.223-0.377,1.856-0.378,1.89-0.019c0.073,0.794-0.324,1.594-1.181,2.405
				c-0.857,0.811-2.124,1.848-3.754,3.127c-5.83,4.574-11.823,8.462-18.124,11.674c-6.302,3.213-12.56,5.668-18.989,7.396
				c-4.071,1.097-8.627,1.753-13.756,2.056c-5.132,0.304-10.153,0.014-15.146-0.892c-4.996-0.906-9.657-2.588-14.017-5.122
				c-4.358-2.532-7.748-6.231-10.014-11.246c-2.534-5.608-3.195-11.389-1.706-17.351c1.489-5.961,4.431-11.634,8.887-16.873
				c4.455-5.237,10.036-9.89,16.677-13.788c6.64-3.896,13.581-6.688,20.635-8.351c3.846-0.906,8.079-1.497,12.665-1.729
				c4.583-0.233,8.939,0.117,13.02,1.02c4.08,0.903,7.552,2.481,10.392,4.679c2.84,2.195,4.433,5.195,4.857,8.936
				c0.343,3.021-0.418,5.854-2.207,8.521c-1.791,2.668-4.151,5.023-7.072,7.113c-2.924,2.089-6.133,3.889-9.656,5.433
				c-3.522,1.544-6.92,2.693-10.24,3.442c-2.592,0.584-5.207,0.97-7.865,1.159c-2.657,0.189-5.134,0.067-7.437-0.378
				c-2.304-0.444-4.299-1.237-5.979-2.397C257.332,124.194,256.14,122.518,255.463,120.3z"/>
			<path fill="#F7941E" d="M326.72,144.186c-2.807,0.188-5.093-0.306-6.896-1.52c-1.804-1.214-3.151-2.784-4.023-4.731
				c-0.871-1.946-1.315-4.122-1.292-6.526s0.471-4.655,1.371-6.748c0.9-2.092,2.205-3.872,3.918-5.326
				c1.711-1.453,3.856-2.189,6.361-2.212c2.92-0.027,5.354,0.612,7.231,1.916c1.877,1.303,3.249,2.969,4.114,4.974
				c0.867,2.006,1.25,4.154,1.179,6.438c-0.07,2.283-0.6,4.412-1.558,6.394s-2.315,3.656-4.056,5.035
				C331.327,143.258,329.223,144.017,326.72,144.186z M327.898,139.213c0.848,0.015,1.528-0.398,2.027-1.26
				c0.498-0.859,0.833-1.963,1-3.314c0.169-1.35,0.199-2.82,0.082-4.408s-0.393-3.063-0.827-4.42
				c-0.435-1.354-1.004-2.486-1.713-3.387c-0.708-0.902-1.521-1.327-2.426-1.269c-0.825,0.054-1.498,0.537-2.007,1.443
				c-0.512,0.907-0.858,2.024-1.043,3.345c-0.185,1.319-0.214,2.758-0.094,4.309c0.12,1.554,0.393,2.985,0.806,4.296
				c0.415,1.312,0.969,2.413,1.655,3.307C326.045,138.749,326.896,139.196,327.898,139.213z"/>
			<path fill="#F7941E" d="M353.953,97.117c1.508-0.038,2.83,0.239,3.923,0.791c1.089,0.551,1.946,1.266,2.567,2.129
				c0.623,0.864,1.015,1.793,1.181,2.779c0.166,0.987,0.122,1.919-0.084,2.77c-0.24,0.988-0.815,1.786-1.751,2.356
				c-0.934,0.569-1.898,0.928-2.891,1.067c-0.996,0.142-1.831,0.094-2.511-0.145c-0.681-0.238-0.934-0.688-0.736-1.326
				c0.729-2.354,1.234-4.107,1.403-5.226c0.168-1.117-0.231-1.693-1.201-1.722c-0.795-0.022-1.457,0.704-1.973,2.176
				c-0.516,1.474-1.594,7.286-1.137,7.744c0.149,0.15,1.647-0.074,2.373-0.054c0.725,0.02,1.431,0.042,2.115,0.065
				c1.623,0.056,2.813,0.345,3.557,0.85c0.745,0.505,1.103,1.033,1.075,1.576c-0.026,0.542-0.415,1.011-1.15,1.41
				c-0.739,0.401-1.778,0.573-3.126,0.524c-0.675-0.024-1.453-0.051-2.336-0.076c-0.887-0.024-2.639-0.164-2.847,0.041
				c-0.866,0.854-0.376,8.034-0.43,13.246c-0.056,5.212-0.072,11.479-0.171,18.681c-0.018,1.297-0.495,2.399-1.397,3.292
				c-0.903,0.893-1.888,1.499-2.957,1.821c-1.069,0.323-2.044,0.362-2.929,0.117c-0.886-0.247-1.352-0.85-1.353-1.777
				c0.001-7.855,0.224-14.828,0.316-20.586c0.092-5.758,0.286-10.666,0.587-14.725c-0.91,0.009-1.364,0.014-2.272,0.029
				c-1.345,0.022-2.38-0.169-3.109-0.584c-0.727-0.415-1.124-0.873-1.182-1.378c-0.058-0.503,0.245-0.987,0.914-1.439
				c0.668-0.453,1.772-0.701,3.309-0.727c1.125-0.019,1.689-0.024,2.815-0.033c0.645-5.072,1.813-8.594,3.497-10.542
				C347.729,98.298,350.402,97.205,353.953,97.117z"/>
			<path fill="#F7941E" d="M370.676,98.045c1.51,0.043,2.817,0.389,3.88,0.998c1.062,0.608,1.882,1.366,2.459,2.263
				c0.574,0.896,0.918,1.844,1.033,2.839c0.113,0.994,0.021,1.923-0.231,2.761c-0.292,0.975-0.911,1.741-1.876,2.26
				c-0.967,0.52-1.949,0.824-2.949,0.912c-1.003,0.089-1.836-0.002-2.504-0.276c-0.67-0.275-0.896-0.737-0.667-1.363
				c0.854-2.312,1.454-4.038,1.681-5.146c0.228-1.106-0.143-1.703-1.109-1.783c-0.795-0.065-1.494,0.625-2.086,2.069
				c-0.594,1.443-1.981,7.19-1.549,7.672c0.141,0.158,1.65,0.014,2.375,0.072s1.432,0.119,2.114,0.179
				c1.62,0.143,2.794,0.493,3.512,1.038c0.718,0.544,1.046,1.089,0.989,1.63c-0.056,0.54-0.466,0.987-1.223,1.349
				c-0.762,0.36-1.811,0.478-3.154,0.357c-0.674-0.06-1.451-0.127-2.333-0.199c-0.885-0.072-2.629-0.306-2.849-0.111
				c-0.91,0.807-0.801,8.004-1.129,13.204c-0.331,5.201-0.682,11.46-1.16,18.646c-0.086,1.295-0.623,2.368-1.574,3.212
				c-0.949,0.843-1.966,1.396-3.052,1.663c-1.088,0.266-2.061,0.254-2.934-0.038c-0.872-0.293-1.307-0.921-1.258-1.848
				c0.418-7.845,1.01-14.796,1.406-20.539c0.396-5.745,0.85-10.636,1.364-14.673c-0.909-0.04-1.364-0.059-2.272-0.091
				c-1.346-0.049-2.369-0.295-3.076-0.748c-0.705-0.452-1.076-0.93-1.109-1.438c-0.03-0.505,0.299-0.972,0.991-1.389
				c0.693-0.418,1.809-0.606,3.344-0.552c1.126,0.041,1.689,0.064,2.815,0.116c0.913-5.031,2.267-8.483,4.056-10.341
				C364.386,98.895,367.118,97.944,370.676,98.045z"/>
			<path fill="#F7941E" d="M391.796,131.287c-0.771,0.661-1.676,1.192-2.707,1.541c-1.034,0.35-2.128,0.604-3.285,0.764
				c-1.158,0.158-2.318,0.234-3.484,0.224s-2.824-0.246-3.07-0.068c-0.477,0.344-0.738,2.938-0.953,4.37
				c-0.215,1.434-0.293,2.738-0.242,3.91c0.051,1.173,0.238,2.181,0.555,3.022c0.317,0.843,0.842,1.418,1.564,1.736
				c0.94,0.412,2.018,0.401,3.239-0.043c1.219-0.444,2.444-1.119,3.68-2.024c1.234-0.903,2.471-1.985,3.716-3.244
				c1.244-1.258,2.38-2.474,3.398-3.652c1.019-1.178,1.912-2.265,2.674-3.266c0.76-0.999,1.266-1.746,1.525-2.197
				c0.34-0.589,0.825-0.948,1.387-1.059c0.563-0.112,1.078-0.083,1.546,0.084c0.466,0.167,0.821,0.48,1.06,0.935
				c0.238,0.453,0.229,1.038-0.077,1.592c-0.21,0.383-0.698,1.171-1.344,2.33c-0.647,1.162-1.495,2.452-2.539,3.869
				c-1.046,1.418-2.242,2.864-3.585,4.345c-1.342,1.481-2.852,2.789-4.519,3.935c-1.667,1.145-3.481,2.041-5.444,2.692
				c-1.963,0.65-4.041,0.829-6.266,0.542c-2.666-0.346-4.631-1.477-5.942-3.432c-1.311-1.958-2.12-4.325-2.399-7.116
				c-0.283-2.789-0.122-5.737,0.527-8.84c0.646-3.103,1.648-5.973,3.027-8.601c1.381-2.627,3.032-4.748,4.958-6.35
				c1.921-1.6,3.964-2.262,6.074-1.978c2.025,0.272,3.735,1.127,5.105,2.544c1.368,1.419,2.331,2.988,2.895,4.695
				c0.565,1.708,0.761,3.396,0.602,5.057C393.314,129.269,392.726,130.491,391.796,131.287z M385.683,120.571
				c-0.592,0.146-1.361,0.963-2.232,2.489c-0.875,1.527-2.75,5.378-2.596,5.634c0.098,0.163,1.785,0.14,2.696,0.081
				c0.91-0.058,1.606-0.356,2.095-0.858c0.372-0.384,0.677-0.981,0.879-1.794c0.199-0.812,0.307-1.657,0.308-2.535
				c0.002-0.878-0.103-1.625-0.31-2.239C386.313,120.735,386.027,120.486,385.683,120.571z"/>
			<path fill="#F7941E" d="M418.148,136.972c-0.833,0.583-1.786,1.026-2.853,1.275c-1.067,0.25-2.191,0.397-3.364,0.446
				c-1.173,0.048-2.342,0.011-3.509-0.111c-1.167-0.121-2.803-0.513-3.066-0.358c-0.507,0.298-1.012,2.854-1.36,4.261
				c-0.351,1.406-0.55,2.697-0.607,3.868c-0.06,1.173,0.034,2.196,0.272,3.064c0.239,0.87,0.711,1.493,1.403,1.877
				c0.905,0.501,1.985,0.592,3.247,0.266c1.264-0.325,2.552-0.881,3.875-1.663c1.321-0.781,2.66-1.738,4.026-2.874
				c1.362-1.133,2.613-2.235,3.745-3.312c1.131-1.075,2.127-2.068,2.982-2.992c0.854-0.922,1.432-1.619,1.734-2.043
				c0.395-0.555,0.914-0.864,1.488-0.922c0.574-0.057,1.09,0.022,1.541,0.233s0.779,0.559,0.976,1.034s0.133,1.056-0.224,1.577
				c-0.248,0.36-0.813,1.099-1.566,2.192c-0.756,1.095-1.728,2.296-2.907,3.606c-1.179,1.312-2.515,2.637-3.999,3.981
				c-1.482,1.347-3.115,2.503-4.891,3.482c-1.779,0.981-3.68,1.699-5.705,2.159c-2.027,0.461-4.125,0.44-6.323-0.059
				c-2.638-0.598-4.503-1.908-5.63-3.981c-1.129-2.073-1.715-4.506-1.736-7.312c-0.021-2.804,0.417-5.725,1.355-8.752
				c0.938-3.027,2.205-5.792,3.832-8.278c1.627-2.483,3.478-4.438,5.554-5.849c2.072-1.41,4.177-1.875,6.264-1.392
				c2.003,0.465,3.637,1.479,4.876,3.021s2.057,3.199,2.461,4.952c0.408,1.755,0.447,3.454,0.133,5.094
				C419.86,135.106,419.154,136.268,418.148,136.972z M413.025,125.718c-0.605,0.089-1.45,0.829-2.467,2.266
				c-1.017,1.438-3.251,5.093-3.122,5.36c0.082,0.173,1.771,0.31,2.689,0.339c0.916,0.029,1.643-0.203,2.178-0.656
				c0.41-0.346,0.77-0.911,1.046-1.701c0.276-0.789,0.462-1.621,0.545-2.495c0.085-0.874,0.052-1.627-0.1-2.259
				C413.646,125.94,413.376,125.665,413.025,125.718z"/>
		</g>
	</g>
</g>
</svg>
